<mxfile host="app.diagrams.net" modified="2024-05-18T18:03:22.784Z" agent="Mozilla/5.0 (Windows NT 10.0; Win64; x64) AppleWebKit/537.36 (KHTML, like Gecko) Chrome/124.0.0.0 Safari/537.36" etag="GdO_5n-j_chujP2M3QNf" version="24.4.4" type="google">
  <diagram name="Page-1" id="2YBvvXClWsGukQMizWep">
    <mxGraphModel grid="1" page="1" gridSize="10" guides="1" tooltips="1" connect="1" arrows="1" fold="1" pageScale="1" pageWidth="850" pageHeight="1100" math="0" shadow="0">
      <root>
        <mxCell id="0" />
        <mxCell id="1" parent="0" />
        <mxCell id="aM9ryv3xv72pqoxQDRHE-1" value="Registered User" style="shape=umlLifeline;perimeter=lifelinePerimeter;whiteSpace=wrap;html=1;container=0;dropTarget=0;collapsible=0;recursiveResize=0;outlineConnect=0;portConstraint=eastwest;newEdgeStyle={&quot;edgeStyle&quot;:&quot;elbowEdgeStyle&quot;,&quot;elbow&quot;:&quot;vertical&quot;,&quot;curved&quot;:0,&quot;rounded&quot;:0};" vertex="1" parent="1">
          <mxGeometry x="98" y="40" width="100" height="560" as="geometry" />
        </mxCell>
        <mxCell id="aM9ryv3xv72pqoxQDRHE-2" value="" style="html=1;points=[];perimeter=orthogonalPerimeter;outlineConnect=0;targetShapes=umlLifeline;portConstraint=eastwest;newEdgeStyle={&quot;edgeStyle&quot;:&quot;elbowEdgeStyle&quot;,&quot;elbow&quot;:&quot;vertical&quot;,&quot;curved&quot;:0,&quot;rounded&quot;:0};" vertex="1" parent="aM9ryv3xv72pqoxQDRHE-1">
          <mxGeometry x="45" y="70" width="10" height="190" as="geometry" />
        </mxCell>
        <mxCell id="aM9ryv3xv72pqoxQDRHE-5" value="System" style="shape=umlLifeline;perimeter=lifelinePerimeter;whiteSpace=wrap;html=1;container=0;dropTarget=0;collapsible=0;recursiveResize=0;outlineConnect=0;portConstraint=eastwest;newEdgeStyle={&quot;edgeStyle&quot;:&quot;elbowEdgeStyle&quot;,&quot;elbow&quot;:&quot;vertical&quot;,&quot;curved&quot;:0,&quot;rounded&quot;:0};" vertex="1" parent="1">
          <mxGeometry x="278" y="40" width="100" height="560" as="geometry" />
        </mxCell>
        <mxCell id="aM9ryv3xv72pqoxQDRHE-6" value="" style="html=1;points=[];perimeter=orthogonalPerimeter;outlineConnect=0;targetShapes=umlLifeline;portConstraint=eastwest;newEdgeStyle={&quot;edgeStyle&quot;:&quot;elbowEdgeStyle&quot;,&quot;elbow&quot;:&quot;vertical&quot;,&quot;curved&quot;:0,&quot;rounded&quot;:0};" vertex="1" parent="aM9ryv3xv72pqoxQDRHE-5">
          <mxGeometry x="45" y="80" width="10" height="400" as="geometry" />
        </mxCell>
        <mxCell id="aM9ryv3xv72pqoxQDRHE-8" value="Presents, Create new question form" style="html=1;verticalAlign=bottom;endArrow=open;dashed=1;endSize=8;edgeStyle=elbowEdgeStyle;elbow=vertical;curved=0;rounded=0;" edge="1" parent="1">
          <mxGeometry relative="1" as="geometry">
            <mxPoint x="153" y="200" as="targetPoint" />
            <Array as="points">
              <mxPoint x="248" y="200" />
            </Array>
            <mxPoint x="323" y="200" as="sourcePoint" />
          </mxGeometry>
        </mxCell>
        <mxCell id="aM9ryv3xv72pqoxQDRHE-10" value="Navigates to post question" style="html=1;verticalAlign=bottom;endArrow=open;dashed=1;endSize=8;edgeStyle=elbowEdgeStyle;elbow=vertical;curved=0;rounded=0;" edge="1" parent="1">
          <mxGeometry relative="1" as="geometry">
            <mxPoint x="321" y="157" as="targetPoint" />
            <Array as="points">
              <mxPoint x="236" y="157" />
            </Array>
            <mxPoint x="156" y="157" as="sourcePoint" />
          </mxGeometry>
        </mxCell>
        <mxCell id="wd2pgL3NjE_r0jOhSGkw-1" value="Database" style="shape=umlLifeline;perimeter=lifelinePerimeter;whiteSpace=wrap;html=1;container=0;dropTarget=0;collapsible=0;recursiveResize=0;outlineConnect=0;portConstraint=eastwest;newEdgeStyle={&quot;edgeStyle&quot;:&quot;elbowEdgeStyle&quot;,&quot;elbow&quot;:&quot;vertical&quot;,&quot;curved&quot;:0,&quot;rounded&quot;:0};" vertex="1" parent="1">
          <mxGeometry x="459" y="40" width="100" height="560" as="geometry" />
        </mxCell>
        <mxCell id="wd2pgL3NjE_r0jOhSGkw-2" value="" style="html=1;points=[];perimeter=orthogonalPerimeter;outlineConnect=0;targetShapes=umlLifeline;portConstraint=eastwest;newEdgeStyle={&quot;edgeStyle&quot;:&quot;elbowEdgeStyle&quot;,&quot;elbow&quot;:&quot;vertical&quot;,&quot;curved&quot;:0,&quot;rounded&quot;:0};" vertex="1" parent="wd2pgL3NjE_r0jOhSGkw-1">
          <mxGeometry x="45" y="250" width="10" height="190" as="geometry" />
        </mxCell>
        <mxCell id="wd2pgL3NjE_r0jOhSGkw-3" value="Enters question details and tags" style="html=1;verticalAlign=bottom;endArrow=open;dashed=1;endSize=8;edgeStyle=elbowEdgeStyle;elbow=vertical;curved=0;rounded=0;" edge="1" parent="1">
          <mxGeometry relative="1" as="geometry">
            <mxPoint x="320" y="239" as="targetPoint" />
            <Array as="points">
              <mxPoint x="235" y="239" />
            </Array>
            <mxPoint x="155" y="239" as="sourcePoint" />
          </mxGeometry>
        </mxCell>
        <mxCell id="wd2pgL3NjE_r0jOhSGkw-4" value="Submits question" style="html=1;verticalAlign=bottom;endArrow=open;dashed=1;endSize=8;edgeStyle=elbowEdgeStyle;elbow=vertical;curved=0;rounded=0;" edge="1" parent="1">
          <mxGeometry relative="1" as="geometry">
            <mxPoint x="320" y="279" as="targetPoint" />
            <Array as="points">
              <mxPoint x="235" y="279" />
            </Array>
            <mxPoint x="155" y="279" as="sourcePoint" />
          </mxGeometry>
        </mxCell>
        <mxCell id="wd2pgL3NjE_r0jOhSGkw-5" value="Validates" style="html=1;verticalAlign=bottom;endArrow=open;dashed=1;endSize=8;edgeStyle=elbowEdgeStyle;elbow=vertical;curved=0;rounded=0;" edge="1" parent="1">
          <mxGeometry relative="1" as="geometry">
            <mxPoint x="502" y="318" as="targetPoint" />
            <Array as="points">
              <mxPoint x="417" y="318" />
            </Array>
            <mxPoint x="337" y="318" as="sourcePoint" />
          </mxGeometry>
        </mxCell>
        <mxCell id="wd2pgL3NjE_r0jOhSGkw-6" value="" style="html=1;verticalAlign=bottom;endArrow=open;dashed=1;endSize=8;edgeStyle=elbowEdgeStyle;elbow=vertical;curved=0;rounded=0;" edge="1" parent="1">
          <mxGeometry relative="1" as="geometry">
            <mxPoint x="335" y="359" as="targetPoint" />
            <Array as="points">
              <mxPoint x="430" y="359" />
            </Array>
            <mxPoint x="505" y="359" as="sourcePoint" />
          </mxGeometry>
        </mxCell>
        <mxCell id="wd2pgL3NjE_r0jOhSGkw-7" value="Writes Question" style="html=1;verticalAlign=bottom;endArrow=open;dashed=1;endSize=8;edgeStyle=elbowEdgeStyle;elbow=vertical;curved=0;rounded=0;" edge="1" parent="1">
          <mxGeometry relative="1" as="geometry">
            <mxPoint x="502" y="398" as="targetPoint" />
            <Array as="points">
              <mxPoint x="417" y="398" />
            </Array>
            <mxPoint x="337" y="398" as="sourcePoint" />
          </mxGeometry>
        </mxCell>
        <mxCell id="wd2pgL3NjE_r0jOhSGkw-8" value="" style="html=1;verticalAlign=bottom;endArrow=open;dashed=1;endSize=8;edgeStyle=elbowEdgeStyle;elbow=vertical;curved=0;rounded=0;" edge="1" parent="1">
          <mxGeometry relative="1" as="geometry">
            <mxPoint x="333" y="438" as="targetPoint" />
            <Array as="points">
              <mxPoint x="428" y="438" />
            </Array>
            <mxPoint x="503" y="438" as="sourcePoint" />
          </mxGeometry>
        </mxCell>
        <mxCell id="wd2pgL3NjE_r0jOhSGkw-12" value="Notifies User" style="edgeLabel;html=1;align=center;verticalAlign=middle;resizable=0;points=[];" connectable="0" vertex="1" parent="wd2pgL3NjE_r0jOhSGkw-8">
          <mxGeometry x="0.0431" y="2" relative="1" as="geometry">
            <mxPoint y="-13" as="offset" />
          </mxGeometry>
        </mxCell>
        <mxCell id="wd2pgL3NjE_r0jOhSGkw-9" value="" style="html=1;verticalAlign=bottom;endArrow=open;dashed=1;endSize=8;edgeStyle=elbowEdgeStyle;elbow=vertical;curved=0;rounded=0;" edge="1" parent="1">
          <mxGeometry relative="1" as="geometry">
            <mxPoint x="150" y="478" as="targetPoint" />
            <Array as="points">
              <mxPoint x="245" y="478" />
            </Array>
            <mxPoint x="320" y="478" as="sourcePoint" />
          </mxGeometry>
        </mxCell>
        <mxCell id="wd2pgL3NjE_r0jOhSGkw-10" value="Question Posted" style="edgeLabel;html=1;align=center;verticalAlign=middle;resizable=0;points=[];" connectable="0" vertex="1" parent="wd2pgL3NjE_r0jOhSGkw-9">
          <mxGeometry x="0.1176" y="3" relative="1" as="geometry">
            <mxPoint y="-14" as="offset" />
          </mxGeometry>
        </mxCell>
      </root>
    </mxGraphModel>
  </diagram>
</mxfile>
